<?xml version="1.0" encoding="utf-8"?>
<!-- Generator: Adobe Illustrator 25.4.1, SVG Export Plug-In . SVG Version: 6.00 Build 0)  -->
<svg version="1.1" id="Layer_1" xmlns="http://www.w3.org/2000/svg" xmlns:xlink="http://www.w3.org/1999/xlink" x="0px" y="0px"
	 viewBox="0 0 595.28 841.89" style="enable-background:new 0 0 595.28 841.89;" xml:space="preserve">
<style type="text/css">
	.st0{stroke:#000000;stroke-width:3;stroke-miterlimit:10;fill:#000000}
	.st1{stroke:#000000;stroke-miterlimit:10;;fill:#000000}
	@media (prefers-color-scheme: dark) {
		.st0{stroke:#FED501;stroke-width:3;stroke-miterlimit:10;fill:#FED501}
		.st1{stroke:#FED501;stroke-miterlimit:10;;fill:#FED501}
    }
</style>
<g>
	<path class="st0" d="M298.06,468.05c-0.49,0.51-116.94,3.05-117.76,3.06c-1.64-0.02-2.65-0.03-3.04-0.03
		c-1.54-0.05-7.32,0.17-17.32,0.67c-1.47,0.08-2.49,0.09-3.06,0.04c-0.27-0.01-1.1,0.03-2.5,0.11c-0.09,0.04-0.29,0.06-0.59,0.09
		c-0.3,0.02-0.53,0.03-0.69,0.04c-0.16,0-0.36,0.01-0.62,0.01c-0.26,0-0.48-0.01-0.68-0.05c-0.2-0.04-0.39-0.08-0.57-0.13
		c-0.18-0.05-0.63-0.04-1.35,0.01c-0.32,0.01-0.77,0.04-1.35,0.1c-0.59,0.06-1.04,0.1-1.36,0.13c-0.32,0.03-0.74,0.04-1.24,0.02
		c-0.5-0.02-0.96-0.06-1.36-0.14c-0.08-0.01-0.2-0.01-0.38,0c-0.18,0.01-0.29,0.03-0.34,0.05c-0.77,0.07-1.55,0.09-2.36,0.06
		c-0.81-0.03-1.79-0.09-2.95-0.18c-1.16-0.09-1.97-0.13-2.44-0.15c-0.15-0.02-0.32-0.05-0.49-0.1c-0.18-0.05-0.33-0.09-0.45-0.15
		c-0.12-0.05-0.25-0.11-0.4-0.19c-0.15-0.08-0.28-0.13-0.38-0.17c-0.41-0.5-0.65-0.78-0.71-0.84c-0.19-0.24-0.07-0.42,0.36-0.56
		c0.26-0.06,0.56-0.14,0.9-0.24c4.85-1.19,8.29-1.9,10.32-2.12c8.03-0.89,13.29-1.4,15.8-1.54c1.51-0.09,3.52-0.2,6.02-0.31
		c2.5-0.11,5.17-0.22,8.01-0.31c2.84-0.09,97.54-1.6,98.69-1.55c0.54,0.02,24.24-0.71,24.92-0.63c0.52,0.06,0.78,0.22,0.78,0.45
		C299.57,465.46,299.09,466.97,298.06,468.05z"/>
	<path class="st0" d="M298.16,463.05c0.49-0.51,116.97-2.42,117.8-2.43c1.63,0.03,2.65,0.04,3.04,0.04
		c1.54,0.06,7.32-0.13,17.33-0.58c1.47-0.07,2.49-0.08,3.06-0.03c0.27,0.01,1.1-0.02,2.5-0.1c0.09-0.04,0.29-0.06,0.59-0.08
		c0.3-0.02,0.53-0.03,0.69-0.03c0.16,0,0.36-0.01,0.62-0.01c0.26,0,0.48,0.01,0.68,0.05c0.2,0.04,0.39,0.08,0.57,0.13
		c0.18,0.05,0.63,0.05,1.35,0c0.32-0.01,0.77-0.04,1.35-0.09c0.59-0.05,1.04-0.09,1.36-0.12c0.32-0.03,0.74-0.03,1.24-0.02
		c0.5,0.02,0.96,0.07,1.36,0.14c0.07,0.01,0.2,0.01,0.38,0s0.29-0.03,0.34-0.05c0.77-0.07,1.55-0.08,2.36-0.05
		c0.81,0.03,1.79,0.1,2.95,0.19c1.16,0.09,1.97,0.15,2.43,0.16c0.15,0.02,0.31,0.05,0.49,0.1c0.18,0.05,0.33,0.1,0.45,0.15
		c0.12,0.05,0.25,0.12,0.4,0.2c0.15,0.08,0.27,0.14,0.38,0.17c0.41,0.5,0.64,0.79,0.7,0.84c0.19,0.24,0.06,0.42-0.37,0.56
		c-0.26,0.06-0.56,0.14-0.91,0.24c-4.87,1.17-8.32,1.85-10.35,2.06c-8.04,0.85-13.31,1.33-15.82,1.45
		c-1.52,0.09-3.52,0.18-6.02,0.28c-2.5,0.1-5.17,0.19-8.01,0.27c-2.84,0.08-97.56,1.08-98.71,1.02c-0.54-0.02-24.25,0.58-24.92,0.5
		c-0.52-0.07-0.78-0.22-0.77-0.46C296.62,465.63,297.12,464.12,298.16,463.05z"/>
	<path class="st0" d="M299.35,362.69c-0.43,0.51-102.92,3.05-103.64,3.06c-1.44-0.02-2.33-0.03-2.67-0.03
		c-1.36-0.05-6.44,0.17-15.24,0.67c-1.3,0.08-2.19,0.09-2.69,0.04c-0.24-0.01-0.97,0.03-2.2,0.11c-0.08,0.04-0.25,0.06-0.52,0.09
		c-0.27,0.02-0.47,0.03-0.6,0.04c-0.14,0-0.32,0.01-0.54,0.01c-0.23,0-0.43-0.01-0.6-0.05c-0.18-0.04-0.35-0.08-0.5-0.13
		c-0.16-0.05-0.55-0.04-1.19,0.01c-0.28,0.01-0.67,0.04-1.19,0.1c-0.52,0.06-0.92,0.1-1.2,0.13c-0.28,0.03-0.65,0.04-1.09,0.02
		c-0.44-0.02-0.84-0.06-1.2-0.14c-0.07-0.01-0.18-0.01-0.34,0c-0.16,0.01-0.26,0.03-0.3,0.05c-0.67,0.07-1.37,0.09-2.08,0.06
		c-0.71-0.03-1.58-0.09-2.6-0.18c-1.02-0.09-1.74-0.13-2.14-0.15c-0.13-0.02-0.28-0.05-0.43-0.1c-0.16-0.05-0.29-0.09-0.39-0.15
		c-0.11-0.05-0.22-0.11-0.35-0.19c-0.13-0.08-0.24-0.13-0.33-0.17c-0.37-0.5-0.57-0.78-0.62-0.84c-0.17-0.24-0.06-0.42,0.32-0.56
		c0.23-0.06,0.49-0.14,0.79-0.24c4.27-1.19,7.3-1.9,9.08-2.12c7.06-0.89,11.7-1.4,13.91-1.54c1.33-0.09,3.1-0.2,5.3-0.31
		c2.2-0.11,4.55-0.22,7.05-0.31c2.5-0.09,85.85-1.6,86.86-1.55c0.47,0.02,21.34-0.71,21.93-0.63c0.46,0.06,0.69,0.22,0.69,0.45
		C300.67,360.11,300.25,361.61,299.35,362.69z"/>
	<path class="st0" d="M299.44,357.69c0.43-0.51,102.95-2.42,103.68-2.43c1.44,0.03,2.33,0.04,2.67,0.04
		c1.36,0.06,6.44-0.13,15.25-0.58c1.3-0.07,2.19-0.08,2.69-0.03c0.24,0.01,0.97-0.02,2.2-0.1c0.08-0.04,0.25-0.06,0.52-0.08
		c0.27-0.02,0.47-0.03,0.6-0.03s0.32-0.01,0.54-0.01c0.23,0,0.43,0.01,0.6,0.05c0.18,0.04,0.35,0.08,0.5,0.13
		c0.16,0.05,0.55,0.05,1.19,0c0.28-0.01,0.67-0.04,1.19-0.09c0.52-0.05,0.92-0.09,1.2-0.12c0.29-0.03,0.65-0.03,1.09-0.02
		c0.44,0.02,0.84,0.07,1.19,0.14c0.07,0.01,0.18,0.01,0.34,0c0.16-0.01,0.26-0.03,0.3-0.05c0.67-0.07,1.37-0.08,2.08-0.05
		c0.71,0.03,1.58,0.1,2.6,0.19c1.02,0.09,1.74,0.15,2.14,0.16c0.13,0.02,0.28,0.05,0.43,0.1c0.16,0.05,0.29,0.1,0.39,0.15
		c0.11,0.05,0.22,0.12,0.35,0.2c0.13,0.08,0.24,0.14,0.33,0.17c0.36,0.5,0.56,0.79,0.61,0.84c0.17,0.24,0.06,0.42-0.33,0.56
		c-0.23,0.06-0.49,0.14-0.8,0.24c-4.29,1.17-7.32,1.85-9.11,2.06c-7.08,0.85-11.72,1.33-13.93,1.45c-1.33,0.09-3.1,0.18-5.3,0.28
		c-2.2,0.1-4.55,0.19-7.05,0.27c-2.5,0.08-85.86,1.08-86.88,1.02c-0.47-0.02-21.35,0.58-21.94,0.49c-0.46-0.07-0.69-0.22-0.68-0.46
		C298.08,360.27,298.52,358.77,299.44,357.69z"/>
	<path class="st0" d="M249.28,421.66c-0.51-0.47-3.05-112.1-3.06-112.89c0.02-1.57,0.03-2.54,0.03-2.91
		c0.05-1.48-0.17-7.01-0.67-16.6c-0.08-1.41-0.09-2.39-0.04-2.93c0.01-0.26-0.03-1.06-0.11-2.39c-0.04-0.09-0.06-0.27-0.09-0.56
		c-0.02-0.29-0.03-0.51-0.04-0.66c0-0.15-0.01-0.35-0.01-0.59c0-0.25,0.01-0.46,0.05-0.66c0.04-0.19,0.08-0.38,0.13-0.55
		c0.05-0.17,0.04-0.6-0.01-1.29c-0.01-0.3-0.04-0.73-0.1-1.29c-0.06-0.56-0.1-1-0.13-1.3c-0.03-0.31-0.04-0.71-0.02-1.19
		c0.02-0.48,0.06-0.92,0.14-1.3c0.01-0.07,0.01-0.19,0-0.37s-0.03-0.28-0.05-0.32c-0.07-0.73-0.09-1.49-0.06-2.26
		c0.03-0.77,0.09-1.72,0.18-2.83c0.09-1.11,0.13-1.89,0.15-2.34c0.02-0.15,0.05-0.3,0.1-0.47c0.05-0.17,0.09-0.32,0.15-0.43
		c0.05-0.12,0.11-0.24,0.19-0.39c0.08-0.14,0.13-0.26,0.17-0.36c0.5-0.4,0.78-0.62,0.84-0.68c0.24-0.19,0.42-0.07,0.56,0.35
		c0.06,0.25,0.14,0.53,0.24,0.87c1.19,4.65,1.9,7.95,2.12,9.89c0.89,7.69,1.4,12.74,1.54,15.15c0.09,1.45,0.2,3.38,0.31,5.77
		c0.11,2.39,0.22,4.95,0.31,7.68c0.09,2.72,1.6,93.5,1.55,94.61c-0.02,0.52,0.71,23.24,0.63,23.89c-0.06,0.5-0.22,0.75-0.45,0.75
		C251.87,423.1,250.36,422.65,249.28,421.66z"/>
	<path class="st0" d="M254.29,421.76c0.51,0.47,2.42,112.14,2.43,112.93c-0.03,1.57-0.04,2.54-0.04,2.91
		c-0.06,1.48,0.13,7.02,0.58,16.61c0.07,1.41,0.08,2.39,0.03,2.93c-0.01,0.26,0.02,1.06,0.1,2.39c0.04,0.09,0.06,0.28,0.08,0.56
		c0.02,0.29,0.03,0.51,0.03,0.66c0,0.15,0.01,0.35,0.01,0.59c0,0.25-0.01,0.46-0.05,0.66c-0.04,0.19-0.08,0.38-0.13,0.55
		c-0.05,0.17-0.05,0.6,0,1.29c0.01,0.3,0.04,0.73,0.09,1.3c0.05,0.56,0.09,1,0.12,1.31c0.03,0.31,0.03,0.71,0.02,1.19
		c-0.02,0.48-0.07,0.92-0.14,1.3c-0.01,0.07-0.01,0.19,0,0.37c0.01,0.17,0.03,0.28,0.05,0.32c0.07,0.73,0.08,1.49,0.05,2.27
		c-0.03,0.77-0.1,1.72-0.19,2.83c-0.09,1.11-0.15,1.89-0.16,2.33c-0.02,0.14-0.05,0.3-0.1,0.47c-0.05,0.17-0.1,0.31-0.15,0.43
		c-0.05,0.11-0.12,0.24-0.2,0.38c-0.08,0.14-0.14,0.26-0.17,0.36c-0.5,0.39-0.79,0.61-0.84,0.67c-0.24,0.18-0.42,0.06-0.56-0.36
		c-0.06-0.25-0.14-0.54-0.24-0.87c-1.17-4.67-1.85-7.98-2.06-9.92c-0.85-7.71-1.33-12.76-1.45-15.17c-0.09-1.45-0.18-3.38-0.28-5.77
		c-0.1-2.4-0.19-4.96-0.27-7.68c-0.08-2.72-1.08-93.52-1.02-94.63c0.02-0.52-0.58-23.25-0.5-23.89c0.07-0.5,0.22-0.75,0.46-0.74
		C251.71,420.28,253.21,420.76,254.29,421.76z"/>
	<path class="st0" d="M346.95,406.81c-0.51-0.43-3.05-102.92-3.06-103.64c0.02-1.44,0.03-2.33,0.03-2.67
		c0.05-1.36-0.17-6.44-0.67-15.24c-0.08-1.3-0.09-2.19-0.04-2.69c0.01-0.24-0.03-0.97-0.11-2.2c-0.04-0.08-0.06-0.25-0.09-0.52
		c-0.02-0.27-0.03-0.47-0.04-0.6s-0.01-0.32-0.01-0.54c0-0.23,0.01-0.43,0.05-0.6c0.04-0.18,0.08-0.35,0.13-0.5
		c0.05-0.16,0.04-0.55-0.01-1.19c-0.01-0.28-0.04-0.67-0.1-1.19c-0.06-0.52-0.1-0.92-0.13-1.2c-0.03-0.28-0.04-0.65-0.02-1.09
		c0.02-0.44,0.06-0.84,0.14-1.2c0.01-0.07,0.01-0.18,0-0.34c-0.01-0.16-0.03-0.26-0.05-0.3c-0.07-0.67-0.09-1.37-0.06-2.08
		c0.03-0.71,0.09-1.58,0.18-2.6c0.09-1.02,0.13-1.74,0.15-2.14c0.02-0.13,0.05-0.28,0.1-0.43c0.05-0.16,0.09-0.29,0.15-0.39
		c0.05-0.11,0.11-0.22,0.19-0.35c0.08-0.13,0.13-0.24,0.17-0.33c0.5-0.37,0.78-0.57,0.84-0.62c0.24-0.17,0.42-0.06,0.56,0.32
		c0.06,0.23,0.14,0.49,0.24,0.79c1.19,4.27,1.9,7.3,2.12,9.08c0.89,7.06,1.4,11.7,1.54,13.91c0.09,1.33,0.2,3.1,0.31,5.3
		c0.11,2.2,0.22,4.55,0.31,7.05c0.09,2.5,1.6,85.85,1.55,86.86c-0.02,0.47,0.71,21.34,0.63,21.93c-0.06,0.46-0.22,0.69-0.45,0.69
		C349.54,408.13,348.03,407.72,346.95,406.81z"/>
	<path class="st0" d="M351.95,406.9c0.51,0.43,2.42,102.95,2.43,103.68c-0.03,1.44-0.04,2.33-0.04,2.67
		c-0.06,1.36,0.13,6.44,0.58,15.25c0.07,1.3,0.08,2.19,0.03,2.69c-0.01,0.24,0.02,0.97,0.1,2.2c0.04,0.08,0.06,0.25,0.08,0.52
		c0.02,0.27,0.03,0.47,0.03,0.6c0,0.14,0.01,0.32,0.01,0.54c0,0.23-0.01,0.43-0.05,0.6c-0.04,0.18-0.08,0.35-0.13,0.5
		c-0.05,0.16-0.05,0.55,0,1.19c0.01,0.28,0.04,0.67,0.09,1.19c0.05,0.52,0.09,0.92,0.12,1.2c0.03,0.29,0.03,0.65,0.02,1.09
		c-0.02,0.44-0.07,0.84-0.14,1.19c-0.01,0.07-0.01,0.18,0,0.34c0.01,0.16,0.03,0.26,0.05,0.3c0.07,0.67,0.08,1.37,0.05,2.08
		c-0.03,0.71-0.1,1.58-0.19,2.6c-0.09,1.02-0.15,1.74-0.16,2.14c-0.02,0.13-0.05,0.28-0.1,0.43c-0.05,0.16-0.1,0.29-0.15,0.39
		c-0.05,0.11-0.12,0.22-0.2,0.35c-0.08,0.13-0.14,0.24-0.17,0.33c-0.5,0.36-0.79,0.56-0.84,0.61c-0.24,0.17-0.42,0.06-0.56-0.33
		c-0.06-0.23-0.14-0.49-0.24-0.8c-1.17-4.29-1.85-7.32-2.06-9.11c-0.85-7.08-1.33-11.72-1.45-13.93c-0.09-1.33-0.18-3.1-0.28-5.3
		c-0.1-2.2-0.19-4.55-0.27-7.05c-0.08-2.5-1.08-85.86-1.02-86.88c0.02-0.47-0.58-21.35-0.49-21.94c0.07-0.46,0.22-0.69,0.46-0.68
		C349.37,405.54,350.87,405.98,351.95,406.9z"/>
	<path class="st1" d="M413.38,308.15h-0.08c-0.39,0.34-0.53,0.65-0.42,0.92c-0.11,0.11-0.25,0.28-0.42,0.51
		c-0.17,0.22-0.31,0.43-0.42,0.63c-0.11,0.2-0.17,0.44-0.17,0.72c0.06,0.23-0.14,0.65-0.59,1.26c-0.62,0.84-1.88,2.58-3.79,5.22
		c-0.06,0.06-0.14,0.16-0.25,0.29c-0.11,0.14-0.2,0.24-0.25,0.29c-0.39,0.73-0.9,1.47-1.51,2.23c-0.62,0.76-1.32,1.58-2.1,2.48
		c-0.79,0.9-1.37,1.57-1.77,2.02c-0.84,1.01-2.16,2.19-3.95,3.53c-0.39,0.34-1.02,0.77-1.89,1.3c-0.87,0.53-1.5,0.94-1.89,1.22
		c-1.85,1.4-4.09,1.37-6.73-0.08c-0.34-0.17-0.66-0.36-0.97-0.59c-0.31-0.22-0.57-0.45-0.8-0.67c-0.22-0.22-0.48-0.49-0.76-0.8
		c-0.28-0.31-0.5-0.57-0.67-0.8c-0.17-0.22-0.39-0.52-0.67-0.88c-0.28-0.36-0.5-0.63-0.67-0.8c-0.45-0.56-0.7-1.4-0.76-2.52
		c0-1.12,0.28-2.69,0.84-4.71c0.84-3.03,2.52-7.04,5.05-12.03c2.36-4.54,5.33-9.76,8.92-15.65c0.17-0.28,0.42-0.69,0.76-1.22
		c0.34-0.53,0.6-0.95,0.8-1.26c0.2-0.31,0.42-0.71,0.67-1.22c0.25-0.5,0.43-0.95,0.55-1.35c2.69-3.93,4.96-6.76,6.81-8.5
		c0.06-0.11,0.17-0.2,0.34-0.25c0.73-0.45,1.21-0.73,1.43-0.84c0.22-0.11,0.56-0.21,1.01-0.29c0.45-0.08,0.85,0,1.22,0.25
		c0.36,0.25,0.83,0.66,1.39,1.22c0.34,0.39,0.73,0.56,1.18,0.5c0.06,0,0.14,0.01,0.25,0.04c0.11,0.03,0.2,0.04,0.25,0.04
		c1.85-0.11,3.42,0.31,4.71,1.26c1.29,0.95,2.52,2.33,3.7,4.12c0.45,0.67,0.67,1.51,0.67,2.52c-0.06,1.18-0.28,2.44-0.67,3.79
		c-0.95,3.42-2.3,6.79-4.04,10.09c-2.08,3.87-3.39,6.25-3.95,7.15L413.38,308.15z M392.18,314.12c-0.34,0.79-0.69,1.65-1.05,2.61
		c-0.37,0.95-0.65,1.77-0.84,2.44c-0.2,0.67-0.46,1.61-0.8,2.82c-0.34,1.21-0.59,2.09-0.76,2.65c0.5,0.06,1.12-0.17,1.85-0.67
		c2.19-1.51,4.01-3.08,5.47-4.71c4.04-4.49,6.95-7.99,8.75-10.52c2.36-3.25,3.81-5.35,4.37-6.31c0.28-0.5,0.76-1.33,1.43-2.48
		c0.67-1.15,1.23-2.16,1.68-3.03c0.45-0.87,0.84-1.72,1.18-2.57c0.17-0.45,0.36-0.87,0.59-1.26c1.35-2.41,2.3-5.05,2.86-7.91
		c0.11-1.01,0.1-1.58-0.04-1.72c-0.14-0.14-0.74-0.15-1.81-0.04c-1.01,0.11-2.05,0.53-3.11,1.26c-1.35,0.84-2.27,1.29-2.78,1.35
		c-0.28,0.06-0.62,0.37-1.01,0.93c-0.45,0.73-1.16,1.81-2.15,3.24c-0.98,1.43-1.75,2.58-2.31,3.45c-0.56,0.87-1.22,1.93-1.98,3.2
		c-0.76,1.26-1.42,2.45-1.98,3.58c-0.22,0.45-0.6,1.07-1.14,1.85c-0.53,0.79-0.91,1.4-1.14,1.85c-0.39,0.73-1.21,2.26-2.44,4.58
		C393.8,311.03,392.85,312.84,392.18,314.12z"/>
	<path class="st1" d="M193.95,323.98c0-0.07,0.15-0.61,0.46-1.6c-1.98-1.14-3.99-1.41-6.04-0.8c-0.46,0.23-1.05,0.29-1.77,0.17
		c-0.72-0.11-1.25-0.25-1.6-0.4c-0.34-0.15-0.84-0.4-1.48-0.74c-0.65-0.34-1.16-0.55-1.54-0.63c-0.3-0.15-0.64-0.57-1.03-1.25
		c-0.99-1.44-0.61-2.36,1.14-2.74c0.53-0.15,1.71-0.3,3.53-0.46c0.3-0.08,0.87-0.13,1.71-0.17c0.84-0.04,1.48-0.09,1.94-0.17
		c1.75-0.3,3.15-0.34,4.22-0.11c0.38,0.08,0.68,0.08,0.91,0c0.3,0,0.66-0.02,1.08-0.06c0.42-0.04,0.68-0.06,0.8-0.06
		c0.11,0,0.29-0.04,0.51-0.11c0.23-0.08,0.38-0.15,0.46-0.23c0.07-0.07,0.19-0.23,0.34-0.46c0.15-0.23,0.29-0.47,0.4-0.74
		c0.11-0.27,0.28-0.63,0.51-1.08c4.03-9.35,7.11-15.96,9.24-19.84c0.76-1.29,1.25-1.98,1.48-2.05c0.23-0.07,1.03,0.15,2.39,0.68
		c1.98,0.68,3.42,1.94,4.33,3.76c0.68,1.37,0.64,2.78-0.11,4.22c-0.68,1.22-2.81,5.36-6.38,12.43c-0.3,0.61-0.34,1.07-0.11,1.37
		c0.3,0.08,1.44-0.11,3.42-0.57c4.33-0.91,8.32-1.18,11.97-0.8c0.91,0.08,1.52,0.23,1.82,0.46c1.21,0.68,1.37,1.48,0.46,2.39
		c-1.52,1.52-3.08,2.43-4.67,2.74c-4.03,0.84-6.99,1.86-8.89,3.08c-0.15,0.08-0.76,0.23-1.82,0.46c-3.12,0.68-5.02,1.07-5.7,1.14
		c-1.29,0.23-2.24,0.87-2.85,1.94c-0.15,0.23-0.38,0.61-0.68,1.14c-0.3,0.53-0.5,0.91-0.57,1.14c-2.51,4.79-3.84,7.26-3.99,7.41
		c-0.38,0.68-0.93,1.69-1.65,3.02c-0.72,1.33-1.27,2.3-1.65,2.91c-0.61,0.91-1.44,1.75-2.51,2.51c-0.68,0.53-1.31,0.59-1.88,0.17
		c-0.57-0.42-0.78-1.01-0.63-1.77c0.68-3.8,1.25-6.35,1.71-7.64C191.51,331.66,192.43,328.77,193.95,323.98z"/>
	<path class="st1" d="M286.61,323.98c0-0.07,0.15-0.61,0.46-1.6c-1.98-1.14-3.99-1.41-6.04-0.8c-0.46,0.23-1.05,0.29-1.77,0.17
		c-0.72-0.11-1.25-0.25-1.6-0.4c-0.34-0.15-0.84-0.4-1.48-0.74c-0.65-0.34-1.16-0.55-1.54-0.63c-0.3-0.15-0.64-0.57-1.03-1.25
		c-0.99-1.44-0.61-2.36,1.14-2.74c0.53-0.15,1.71-0.3,3.53-0.46c0.3-0.08,0.87-0.13,1.71-0.17c0.84-0.04,1.48-0.09,1.94-0.17
		c1.75-0.3,3.15-0.34,4.22-0.11c0.38,0.08,0.68,0.08,0.91,0c0.3,0,0.66-0.02,1.08-0.06c0.42-0.04,0.68-0.06,0.8-0.06
		c0.11,0,0.29-0.04,0.51-0.11c0.23-0.08,0.38-0.15,0.46-0.23c0.07-0.07,0.19-0.23,0.34-0.46c0.15-0.23,0.29-0.47,0.4-0.74
		c0.11-0.27,0.28-0.63,0.51-1.08c4.03-9.35,7.11-15.96,9.24-19.84c0.76-1.29,1.25-1.98,1.48-2.05c0.23-0.07,1.03,0.15,2.39,0.68
		c1.98,0.68,3.42,1.94,4.33,3.76c0.68,1.37,0.64,2.78-0.11,4.22c-0.68,1.22-2.81,5.36-6.38,12.43c-0.3,0.61-0.34,1.07-0.11,1.37
		c0.3,0.08,1.44-0.11,3.42-0.57c4.33-0.91,8.32-1.18,11.97-0.8c0.91,0.08,1.52,0.23,1.82,0.46c1.21,0.68,1.37,1.48,0.46,2.39
		c-1.52,1.52-3.08,2.43-4.67,2.74c-4.03,0.84-6.99,1.86-8.89,3.08c-0.15,0.08-0.76,0.23-1.82,0.46c-3.12,0.68-5.02,1.07-5.7,1.14
		c-1.29,0.23-2.24,0.87-2.85,1.94c-0.15,0.23-0.38,0.61-0.68,1.14c-0.3,0.53-0.5,0.91-0.57,1.14c-2.51,4.79-3.84,7.26-3.99,7.41
		c-0.38,0.68-0.93,1.69-1.65,3.02c-0.72,1.33-1.27,2.3-1.65,2.91c-0.61,0.91-1.44,1.75-2.51,2.51c-0.68,0.53-1.31,0.59-1.88,0.17
		c-0.57-0.42-0.78-1.01-0.63-1.77c0.68-3.8,1.25-6.35,1.71-7.64C284.18,331.66,285.09,328.77,286.61,323.98z"/>
	<path class="st1" d="M289.43,418.82c0-0.07,0.15-0.61,0.46-1.6c-1.98-1.14-3.99-1.41-6.04-0.8c-0.46,0.23-1.05,0.29-1.77,0.17
		c-0.72-0.11-1.25-0.25-1.6-0.4c-0.34-0.15-0.84-0.4-1.48-0.74c-0.65-0.34-1.16-0.55-1.54-0.63c-0.3-0.15-0.64-0.57-1.03-1.25
		c-0.99-1.44-0.61-2.36,1.14-2.74c0.53-0.15,1.71-0.3,3.53-0.46c0.3-0.08,0.87-0.13,1.71-0.17c0.84-0.04,1.48-0.09,1.94-0.17
		c1.75-0.3,3.15-0.34,4.22-0.11c0.38,0.08,0.68,0.08,0.91,0c0.3,0,0.66-0.02,1.08-0.06c0.42-0.04,0.68-0.06,0.8-0.06
		c0.11,0,0.29-0.04,0.51-0.11c0.23-0.08,0.38-0.15,0.46-0.23c0.07-0.07,0.19-0.23,0.34-0.46c0.15-0.23,0.29-0.47,0.4-0.74
		c0.11-0.27,0.28-0.63,0.51-1.08c4.03-9.35,7.11-15.96,9.24-19.84c0.76-1.29,1.25-1.98,1.48-2.05c0.23-0.07,1.03,0.15,2.39,0.68
		c1.98,0.68,3.42,1.94,4.33,3.76c0.68,1.37,0.64,2.78-0.11,4.22c-0.68,1.22-2.81,5.36-6.38,12.43c-0.3,0.61-0.34,1.07-0.11,1.37
		c0.3,0.08,1.44-0.11,3.42-0.57c4.33-0.91,8.32-1.18,11.97-0.8c0.91,0.08,1.52,0.23,1.82,0.46c1.21,0.68,1.37,1.48,0.46,2.39
		c-1.52,1.52-3.08,2.43-4.67,2.74c-4.03,0.84-6.99,1.86-8.89,3.08c-0.15,0.08-0.76,0.23-1.82,0.46c-3.12,0.68-5.02,1.07-5.7,1.14
		c-1.29,0.23-2.24,0.87-2.85,1.94c-0.15,0.23-0.38,0.61-0.68,1.14c-0.3,0.53-0.5,0.91-0.57,1.14c-2.51,4.79-3.84,7.26-3.99,7.41
		c-0.38,0.68-0.93,1.69-1.65,3.02c-0.72,1.33-1.27,2.3-1.65,2.91c-0.61,0.91-1.44,1.75-2.51,2.51c-0.68,0.53-1.31,0.59-1.88,0.17
		c-0.57-0.42-0.78-1.01-0.63-1.77c0.68-3.8,1.25-6.35,1.71-7.64C287,426.5,287.91,423.61,289.43,418.82z"/>
	<path class="st1" d="M387.52,418.82c0-0.07,0.15-0.61,0.46-1.6c-1.98-1.14-3.99-1.41-6.04-0.8c-0.46,0.23-1.05,0.29-1.77,0.17
		c-0.72-0.11-1.25-0.25-1.6-0.4c-0.34-0.15-0.84-0.4-1.48-0.74c-0.65-0.34-1.16-0.55-1.54-0.63c-0.3-0.15-0.64-0.57-1.03-1.25
		c-0.99-1.44-0.61-2.36,1.14-2.74c0.53-0.15,1.71-0.3,3.53-0.46c0.3-0.08,0.87-0.13,1.71-0.17c0.84-0.04,1.48-0.09,1.94-0.17
		c1.75-0.3,3.15-0.34,4.22-0.11c0.38,0.08,0.68,0.08,0.91,0c0.3,0,0.66-0.02,1.08-0.06c0.42-0.04,0.68-0.06,0.8-0.06
		c0.11,0,0.29-0.04,0.51-0.11c0.23-0.08,0.38-0.15,0.46-0.23c0.07-0.07,0.19-0.23,0.34-0.46c0.15-0.23,0.29-0.47,0.4-0.74
		c0.11-0.27,0.28-0.63,0.51-1.08c4.03-9.35,7.11-15.96,9.24-19.84c0.76-1.29,1.25-1.98,1.48-2.05c0.23-0.07,1.03,0.15,2.39,0.68
		c1.98,0.68,3.42,1.94,4.33,3.76c0.68,1.37,0.64,2.78-0.11,4.22c-0.68,1.22-2.81,5.36-6.38,12.43c-0.3,0.61-0.34,1.07-0.11,1.37
		c0.3,0.08,1.44-0.11,3.42-0.57c4.33-0.91,8.32-1.18,11.97-0.8c0.91,0.08,1.52,0.23,1.82,0.46c1.21,0.68,1.37,1.48,0.46,2.39
		c-1.52,1.52-3.08,2.43-4.67,2.74c-4.03,0.84-6.99,1.86-8.89,3.08c-0.15,0.08-0.76,0.23-1.82,0.46c-3.12,0.68-5.02,1.07-5.7,1.14
		c-1.29,0.23-2.24,0.87-2.85,1.94c-0.15,0.23-0.38,0.61-0.68,1.14c-0.3,0.53-0.5,0.91-0.57,1.14c-2.51,4.79-3.84,7.26-3.99,7.41
		c-0.38,0.68-0.93,1.69-1.65,3.02c-0.72,1.33-1.27,2.3-1.65,2.91c-0.61,0.91-1.44,1.75-2.51,2.51c-0.68,0.53-1.31,0.59-1.88,0.17
		c-0.57-0.42-0.78-1.01-0.63-1.77c0.68-3.8,1.25-6.35,1.71-7.64C385.09,426.5,386,423.61,387.52,418.82z"/>
	<path class="st1" d="M177.5,418.82c0-0.07,0.15-0.61,0.46-1.6c-1.98-1.14-3.99-1.41-6.04-0.8c-0.46,0.23-1.05,0.29-1.77,0.17
		c-0.72-0.11-1.25-0.25-1.6-0.4c-0.34-0.15-0.84-0.4-1.48-0.74c-0.65-0.34-1.16-0.55-1.54-0.63c-0.3-0.15-0.64-0.57-1.03-1.25
		c-0.99-1.44-0.61-2.36,1.14-2.74c0.53-0.15,1.71-0.3,3.53-0.46c0.3-0.08,0.87-0.13,1.71-0.17c0.84-0.04,1.48-0.09,1.94-0.17
		c1.75-0.3,3.15-0.34,4.22-0.11c0.38,0.08,0.68,0.08,0.91,0c0.3,0,0.66-0.02,1.08-0.06c0.42-0.04,0.68-0.06,0.8-0.06
		c0.11,0,0.29-0.04,0.51-0.11c0.23-0.08,0.38-0.15,0.46-0.23c0.07-0.07,0.19-0.23,0.34-0.46c0.15-0.23,0.29-0.47,0.4-0.74
		c0.11-0.27,0.28-0.63,0.51-1.08c4.03-9.35,7.11-15.96,9.24-19.84c0.76-1.29,1.25-1.98,1.48-2.05c0.23-0.07,1.03,0.15,2.39,0.68
		c1.98,0.68,3.42,1.94,4.33,3.76c0.68,1.37,0.64,2.78-0.11,4.22c-0.68,1.22-2.81,5.36-6.38,12.43c-0.3,0.61-0.34,1.07-0.11,1.37
		c0.3,0.08,1.44-0.11,3.42-0.57c4.33-0.91,8.32-1.18,11.97-0.8c0.91,0.08,1.52,0.23,1.82,0.46c1.21,0.68,1.37,1.48,0.46,2.39
		c-1.52,1.52-3.08,2.43-4.67,2.74c-4.03,0.84-6.99,1.86-8.89,3.08c-0.15,0.08-0.76,0.23-1.82,0.46c-3.12,0.68-5.02,1.07-5.7,1.14
		c-1.29,0.23-2.24,0.87-2.85,1.94c-0.15,0.23-0.38,0.61-0.68,1.14c-0.3,0.53-0.5,0.91-0.57,1.14c-2.51,4.79-3.84,7.26-3.99,7.41
		c-0.38,0.68-0.93,1.69-1.65,3.02c-0.72,1.33-1.27,2.3-1.65,2.91c-0.61,0.91-1.44,1.75-2.51,2.51c-0.68,0.53-1.31,0.59-1.88,0.17
		c-0.57-0.42-0.78-1.01-0.63-1.77c0.68-3.8,1.25-6.35,1.71-7.64C175.06,426.5,175.98,423.61,177.5,418.82z"/>
	<path class="st1" d="M289.43,524.17c0-0.07,0.15-0.61,0.46-1.6c-1.98-1.14-3.99-1.41-6.04-0.8c-0.46,0.23-1.05,0.29-1.77,0.17
		c-0.72-0.11-1.25-0.25-1.6-0.4c-0.34-0.15-0.84-0.4-1.48-0.74c-0.65-0.34-1.16-0.55-1.54-0.63c-0.3-0.15-0.64-0.57-1.03-1.25
		c-0.99-1.44-0.61-2.36,1.14-2.74c0.53-0.15,1.71-0.3,3.53-0.46c0.3-0.08,0.87-0.13,1.71-0.17c0.84-0.04,1.48-0.09,1.94-0.17
		c1.75-0.3,3.15-0.34,4.22-0.11c0.38,0.08,0.68,0.08,0.91,0c0.3,0,0.66-0.02,1.08-0.06c0.42-0.04,0.68-0.06,0.8-0.06
		c0.11,0,0.29-0.04,0.51-0.11c0.23-0.08,0.38-0.15,0.46-0.23c0.07-0.07,0.19-0.23,0.34-0.46c0.15-0.23,0.29-0.47,0.4-0.74
		c0.11-0.27,0.28-0.63,0.51-1.08c4.03-9.35,7.11-15.96,9.24-19.84c0.76-1.29,1.25-1.98,1.48-2.05c0.23-0.07,1.03,0.15,2.39,0.68
		c1.98,0.68,3.42,1.94,4.33,3.76c0.68,1.37,0.64,2.78-0.11,4.22c-0.68,1.22-2.81,5.36-6.38,12.43c-0.3,0.61-0.34,1.07-0.11,1.37
		c0.3,0.08,1.44-0.11,3.42-0.57c4.33-0.91,8.32-1.18,11.97-0.8c0.91,0.08,1.52,0.23,1.82,0.46c1.21,0.68,1.37,1.48,0.46,2.39
		c-1.52,1.52-3.08,2.43-4.67,2.74c-4.03,0.84-6.99,1.86-8.89,3.08c-0.15,0.08-0.76,0.23-1.82,0.46c-3.12,0.68-5.02,1.07-5.7,1.14
		c-1.29,0.23-2.24,0.87-2.85,1.94c-0.15,0.23-0.38,0.61-0.68,1.14c-0.3,0.53-0.5,0.91-0.57,1.14c-2.51,4.79-3.84,7.26-3.99,7.41
		c-0.38,0.68-0.93,1.69-1.65,3.02c-0.72,1.33-1.27,2.3-1.65,2.91c-0.61,0.91-1.44,1.75-2.51,2.51c-0.68,0.53-1.31,0.59-1.88,0.17
		c-0.57-0.42-0.78-1.01-0.63-1.77c0.68-3.8,1.25-6.35,1.71-7.64C287,531.85,287.91,528.96,289.43,524.17z"/>
	<path class="st1" d="M193.95,524.17c0-0.07,0.15-0.61,0.46-1.6c-1.98-1.14-3.99-1.41-6.04-0.8c-0.46,0.23-1.05,0.29-1.77,0.17
		c-0.72-0.11-1.25-0.25-1.6-0.4c-0.34-0.15-0.84-0.4-1.48-0.74c-0.65-0.34-1.16-0.55-1.54-0.63c-0.3-0.15-0.64-0.57-1.03-1.25
		c-0.99-1.44-0.61-2.36,1.14-2.74c0.53-0.15,1.71-0.3,3.53-0.46c0.3-0.08,0.87-0.13,1.71-0.17c0.84-0.04,1.48-0.09,1.94-0.17
		c1.75-0.3,3.15-0.34,4.22-0.11c0.38,0.08,0.68,0.08,0.91,0c0.3,0,0.66-0.02,1.08-0.06c0.42-0.04,0.68-0.06,0.8-0.06
		c0.11,0,0.29-0.04,0.51-0.11c0.23-0.08,0.38-0.15,0.46-0.23c0.07-0.07,0.19-0.23,0.34-0.46c0.15-0.23,0.29-0.47,0.4-0.74
		c0.11-0.27,0.28-0.63,0.51-1.08c4.03-9.35,7.11-15.96,9.24-19.84c0.76-1.29,1.25-1.98,1.48-2.05c0.23-0.07,1.03,0.15,2.39,0.68
		c1.98,0.68,3.42,1.94,4.33,3.76c0.68,1.37,0.64,2.78-0.11,4.22c-0.68,1.22-2.81,5.36-6.38,12.43c-0.3,0.61-0.34,1.07-0.11,1.37
		c0.3,0.08,1.44-0.11,3.42-0.57c4.33-0.91,8.32-1.18,11.97-0.8c0.91,0.08,1.52,0.23,1.82,0.46c1.21,0.68,1.37,1.48,0.46,2.39
		c-1.52,1.52-3.08,2.43-4.67,2.74c-4.03,0.84-6.99,1.86-8.89,3.08c-0.15,0.08-0.76,0.23-1.82,0.46c-3.12,0.68-5.02,1.07-5.7,1.14
		c-1.29,0.23-2.24,0.87-2.85,1.94c-0.15,0.23-0.38,0.61-0.68,1.14c-0.3,0.53-0.5,0.91-0.57,1.14c-2.51,4.79-3.84,7.26-3.99,7.41
		c-0.38,0.68-0.93,1.69-1.65,3.02c-0.72,1.33-1.27,2.3-1.65,2.91c-0.61,0.91-1.44,1.75-2.51,2.51c-0.68,0.53-1.31,0.59-1.88,0.17
		c-0.57-0.42-0.78-1.01-0.63-1.77c0.68-3.8,1.25-6.35,1.71-7.64C191.51,531.85,192.43,528.96,193.95,524.17z"/>
	<path class="st1" d="M392.05,524.17c0-0.07,0.15-0.61,0.46-1.6c-1.98-1.14-3.99-1.41-6.04-0.8c-0.46,0.23-1.05,0.29-1.77,0.17
		c-0.72-0.11-1.25-0.25-1.6-0.4c-0.34-0.15-0.84-0.4-1.48-0.74c-0.65-0.34-1.16-0.55-1.54-0.63c-0.3-0.15-0.64-0.57-1.03-1.25
		c-0.99-1.44-0.61-2.36,1.14-2.74c0.53-0.15,1.71-0.3,3.53-0.46c0.3-0.08,0.87-0.13,1.71-0.17c0.84-0.04,1.48-0.09,1.94-0.17
		c1.75-0.3,3.15-0.34,4.22-0.11c0.38,0.08,0.68,0.08,0.91,0c0.3,0,0.66-0.02,1.08-0.06c0.42-0.04,0.68-0.06,0.8-0.06
		c0.11,0,0.29-0.04,0.51-0.11c0.23-0.08,0.38-0.15,0.46-0.23c0.07-0.07,0.19-0.23,0.34-0.46c0.15-0.23,0.29-0.47,0.4-0.74
		c0.11-0.27,0.28-0.63,0.51-1.08c4.03-9.35,7.11-15.96,9.24-19.84c0.76-1.29,1.25-1.98,1.48-2.05c0.23-0.07,1.03,0.15,2.39,0.68
		c1.98,0.68,3.42,1.94,4.33,3.76c0.68,1.37,0.64,2.78-0.11,4.22c-0.68,1.22-2.81,5.36-6.38,12.43c-0.3,0.61-0.34,1.07-0.11,1.37
		c0.3,0.08,1.44-0.11,3.42-0.57c4.33-0.91,8.32-1.18,11.97-0.8c0.91,0.08,1.52,0.23,1.82,0.46c1.21,0.68,1.37,1.48,0.46,2.39
		c-1.52,1.52-3.08,2.43-4.67,2.74c-4.03,0.84-6.99,1.86-8.89,3.08c-0.15,0.08-0.76,0.23-1.82,0.46c-3.12,0.68-5.02,1.07-5.7,1.14
		c-1.29,0.23-2.24,0.87-2.85,1.94c-0.15,0.23-0.38,0.61-0.68,1.14c-0.3,0.53-0.5,0.91-0.57,1.14c-2.51,4.79-3.84,7.26-3.99,7.41
		c-0.38,0.68-0.93,1.69-1.65,3.02c-0.72,1.33-1.27,2.3-1.65,2.91c-0.61,0.91-1.44,1.75-2.51,2.51c-0.68,0.53-1.31,0.59-1.88,0.17
		c-0.57-0.42-0.78-1.01-0.63-1.77c0.68-3.8,1.25-6.35,1.71-7.64C389.61,531.85,390.52,528.96,392.05,524.17z"/>
</g>
</svg>
